90_lb_Static
version=1
nRows=37
nColumns=28
inDegrees=yes
endheader
time	ground_force1_vx	ground_force1_vy	ground_force1_vz	ground_force1_px	ground_force1_py	ground_force1_pz	ground_torque1_x	ground_torque1_y	ground_torque1_z	ground_force3_vx	ground_force3_vy	ground_force3_vz	ground_force3_px	ground_force3_py	ground_force3_pz	ground_torque3_x	ground_torque3_y	ground_torque3_z	ground_force2_vx	ground_force2_vy	ground_force2_vz	ground_force2_px	ground_force2_py	ground_force2_pz	ground_torque2_x	ground_torque2_y	ground_torque2_z
0.000000	0.328131	-0.219523	-0.142496	-0.203000	0.000000	0.001500	-0.063797	0.051771	-0.175943	-7.815349	74.594437	-5.533656	-0.239964	0.000000	-0.604178	0.000003	-0.675763	-0.000001	0.348120	1.041679	-0.298344	0.279932	0.000000	-0.432237	0.000000	-0.006811	0.000000	
0.001000	0.264658	0.578034	-0.196822	-0.203000	0.000000	0.001500	0.075969	0.067141	-0.054559	-8.067515	73.809662	-5.243282	-0.242442	0.000000	-0.604486	0.000000	-0.764866	-0.000001	0.085483	0.097545	-0.336198	0.200000	0.000000	-0.300000	-0.049567	0.013098	-0.054500	
0.002000	0.141904	-1.006082	0.022180	-0.203000	0.000000	0.001500	-0.041915	-0.010830	-0.087206	-7.892951	74.203407	-5.177601	-0.240495	0.000000	-0.607690	0.000002	-0.692062	-0.000000	0.185204	0.063381	-0.223366	0.200000	0.000000	-0.300000	-0.069908	0.086264	0.021309	
0.003000	-0.132310	-1.586837	0.064794	-0.203000	0.000000	0.001500	-0.028175	-0.022711	-0.063784	-8.078846	75.148178	-5.272254	-0.237745	0.000000	-0.606154	0.000002	-0.643074	-0.000001	0.397833	-0.818576	-0.120291	0.200000	0.000000	-0.300000	0.077614	-0.064034	0.117427	
0.004000	0.021187	-0.971202	-0.050175	-0.203000	0.000000	0.001500	-0.037301	-0.007566	-0.024926	-8.314759	74.886719	-5.561966	-0.240478	0.000000	-0.603838	0.000001	-0.696062	-0.000000	0.145620	-0.688204	-0.109286	0.200000	0.000000	-0.300000	-0.048219	-0.017264	0.175902	
0.005000	0.109348	-0.418854	-0.180129	-0.203000	0.000000	0.001500	-0.066156	-0.058318	-0.103901	-8.099977	74.690132	-5.480742	-0.239512	0.000000	-0.603953	0.000003	-0.693926	-0.000001	-0.083139	0.553784	0.018431	0.200000	0.000000	-0.300000	-0.065580	0.031918	0.099340	
0.006000	0.200983	0.356507	-0.106859	-0.203000	0.000000	0.001500	0.055289	-0.002690	0.067779	-8.202270	74.165123	-5.155509	-0.239645	0.000000	-0.602239	0.000001	-0.736465	0.000000	0.199356	0.490991	-0.206244	0.200000	0.000000	-0.300000	-0.103002	0.018867	0.080758	
0.007000	0.170862	-0.035555	-0.010842	-0.203000	0.000000	0.001500	-0.144077	0.031132	-0.016943	-8.237127	73.486855	-5.304948	-0.240737	0.000000	-0.606207	0.000001	-0.663820	-0.000000	0.193150	-0.883759	-0.249106	0.200000	0.000000	-0.300000	0.000941	0.022899	0.113171	
0.008000	-0.021617	-1.362264	-0.171164	-0.203000	0.000000	0.001500	-0.121349	0.012280	-0.026323	-8.447986	72.243202	-5.241654	-0.240501	0.000000	-0.606084	0.000005	-0.649352	-0.000001	0.047504	-0.165575	-0.107407	0.200000	0.000000	-0.300000	0.050694	0.031966	0.096602	
0.009000	0.126549	-1.454987	0.111163	-0.203000	0.000000	0.001500	0.025955	-0.021133	0.021639	-8.245563	73.711143	-5.297156	-0.240201	0.000000	-0.605761	0.000001	-0.682749	-0.000001	0.083146	0.453527	0.065832	0.200000	0.000000	-0.300000	0.125396	0.019319	0.124285	
0.010000	0.051393	0.454247	0.129702	-0.203000	0.000000	0.001500	-0.027218	-0.062903	0.065474	-8.064413	73.450279	-4.971391	-0.236807	0.000000	-0.605702	-0.000001	-0.628072	0.000000	-0.082027	0.621843	0.026323	0.200000	0.000000	-0.300000	0.159782	0.018691	-0.005894	
0.011000	0.179110	0.421833	0.022874	-0.203000	0.000000	0.001500	0.024951	-0.031309	-0.032270	-8.014032	73.647713	-5.198268	-0.239049	0.000000	-0.604948	0.000003	-0.654018	-0.000001	0.083504	0.261305	0.065050	0.200000	0.000000	-0.300000	-0.020310	0.018399	-0.067069	
0.012000	0.081954	-0.161262	0.137119	-0.203000	0.000000	0.001500	0.057724	-0.038205	-0.003764	-7.760478	74.169762	-5.269095	-0.239359	0.000000	-0.604161	0.000001	-0.695130	-0.000001	-0.133576	0.777492	-0.118863	0.200000	0.000000	-0.300000	-0.126215	-0.016173	-0.068346	
0.013000	-0.150342	0.354605	0.172072	-0.203000	0.000000	0.001500	-0.014018	-0.020581	-0.012912	-8.102654	74.262260	-5.215656	-0.239376	0.000000	-0.602480	-0.000000	-0.772556	-0.000001	-0.057020	2.196095	-0.421954	0.172277	0.000000	-0.373744	0.000000	-0.067554	0.000000	
0.014000	-0.040506	0.352702	-0.090160	-0.203000	0.000000	0.001500	0.039783	0.125636	-0.086900	-8.471116	74.236160	-5.078257	-0.239501	0.000000	-0.603394	0.000003	-0.714162	-0.000002	-0.156530	0.650983	-0.236720	0.200000	0.000000	-0.300000	0.034241	0.074151	-0.045273	
0.015000	0.064262	0.160306	-0.066639	-0.203000	0.000000	0.001500	0.089023	0.033295	-0.113780	-8.382136	73.353287	-5.127962	-0.240449	0.000000	-0.602560	0.000004	-0.710557	-0.000001	-0.040269	0.952407	0.140640	0.200000	0.000000	-0.300000	0.038340	0.040013	0.001969	
0.016000	-0.001633	-0.162551	-0.097366	-0.203000	0.000000	0.001500	0.168600	0.078121	-0.035221	-8.242378	72.513420	-5.139037	-0.240302	0.000000	-0.603858	0.000003	-0.686364	-0.000001	0.042531	0.123761	0.172653	0.200000	0.000000	-0.300000	-0.004451	-0.045290	0.026603	
0.017000	0.021942	0.259512	-0.235989	-0.203000	0.000000	0.001500	0.058511	0.091767	-0.092800	-8.067619	71.809402	-5.052714	-0.239932	0.000000	-0.605893	-0.000000	-0.670143	-0.000001	-0.142856	1.147398	-0.134253	0.127345	0.000000	-0.310794	0.000000	-0.011234	0.000000	
0.018000	0.087926	-0.193063	-0.033082	-0.203000	0.000000	0.001500	0.071400	0.086456	-0.202321	-8.116277	74.550934	-5.596905	-0.238459	0.000000	-0.602836	0.000002	-0.738752	0.000000	-0.248164	0.648275	-0.168182	0.200000	0.000000	-0.300000	0.069009	0.027456	0.039121	
0.019000	0.155369	-0.518685	-0.359522	-0.203000	0.000000	0.001500	-0.029677	0.038081	-0.143748	-8.070624	74.829498	-5.192163	-0.238801	0.000000	-0.604325	0.000005	-0.742695	-0.000000	-0.036292	1.339438	0.092427	0.155154	0.000000	-0.264089	0.000000	0.013280	0.000000	
0.020000	0.206556	-0.288833	-0.287184	-0.203000	0.000000	0.001500	0.153659	-0.045228	-0.258296	-8.081340	72.730469	-4.963784	-0.237321	0.000000	-0.604258	0.000003	-0.666675	-0.000001	0.214433	1.075709	0.041014	0.238236	0.000000	-0.256795	0.000000	0.045251	0.000000	
0.021000	-0.085338	-1.166330	-0.065268	-0.203000	0.000000	0.001500	0.082756	-0.009264	-0.097045	-8.047538	73.018875	-5.044081	-0.237171	0.000000	-0.603810	0.000002	-0.690743	-0.000001	-0.156263	1.076845	0.033519	0.154362	0.000000	-0.323676	0.000000	0.042591	0.000000	
0.022000	0.198673	-1.134967	-0.003122	-0.203000	0.000000	0.001500	-0.018820	-0.002367	-0.195061	-8.292376	73.325798	-5.417340	-0.238201	0.000000	-0.603667	0.000005	-0.723038	0.000000	-0.087677	0.978535	0.143719	0.200000	0.000000	-0.300000	-0.177976	0.035657	0.007532	
0.023000	0.167811	-0.741021	-0.050781	-0.203000	0.000000	0.001500	0.055019	-0.060453	-0.171281	-8.228707	72.595413	-5.328487	-0.240703	0.000000	-0.606427	0.000003	-0.695775	-0.000000	0.022260	0.717774	-0.328296	0.200000	0.000000	-0.300000	-0.076271	0.031576	0.039299	
0.024000	-0.021907	-1.300603	-0.131323	-0.203000	0.000000	0.001500	0.024588	-0.054432	-0.073958	-8.154832	74.265266	-5.287368	-0.238482	0.000000	-0.606113	0.000003	-0.653103	-0.000001	0.282312	0.621412	-0.170379	0.200000	0.000000	-0.300000	-0.005954	0.033698	-0.123426	
0.025000	0.153481	0.097205	-0.025418	-0.203000	0.000000	0.001500	-0.108781	0.014747	-0.106208	-8.055110	73.859085	-5.380630	-0.239666	0.000000	-0.604765	0.000003	-0.672374	-0.000000	0.151608	0.167334	-0.510513	0.200000	0.000000	-0.300000	-0.043859	0.064367	-0.040774	
0.026000	-0.032216	0.356446	-0.112281	-0.203000	0.000000	0.001500	-0.024275	0.029959	0.097401	-8.247037	72.977356	-5.540389	-0.239423	0.000000	-0.605922	0.000000	-0.610452	-0.000001	0.236263	-0.072731	-0.158723	0.200000	0.000000	-0.300000	-0.093053	0.041886	-0.026200	
0.027000	-0.262659	0.066980	-0.200431	-0.203000	0.000000	0.001500	0.023623	-0.022035	0.081503	-8.096737	75.409523	-5.663130	-0.236272	0.000000	-0.605517	0.000006	-0.681594	-0.000001	-0.091542	0.526795	-0.088305	0.200000	0.000000	-0.300000	-0.044031	0.060991	0.020033	
0.028000	0.117189	-0.329579	-0.125467	-0.203000	0.000000	0.001500	0.007528	0.018146	0.027598	-8.248628	74.501137	-5.285199	-0.237224	0.000000	-0.603688	0.000000	-0.725796	-0.000001	-0.066397	0.287968	-0.040716	0.200000	0.000000	-0.300000	0.096840	0.068847	-0.004163	
0.029000	0.327968	0.423102	0.191954	-0.203000	0.000000	0.001500	0.016412	0.018843	-0.073412	-8.338581	73.737587	-5.277077	-0.237583	0.000000	-0.605002	0.000003	-0.702877	-0.000001	-0.001742	0.503939	-0.100818	0.200000	0.000000	-0.300000	0.080334	0.026064	0.042525	
0.030000	0.046736	0.119701	-0.049308	-0.203000	0.000000	0.001500	0.016682	0.003506	-0.065119	-8.378755	73.853203	-5.149344	-0.237395	0.000000	-0.604303	0.000001	-0.688411	-0.000001	-0.030459	-1.076811	-0.583129	0.200000	0.000000	-0.300000	-0.033594	-0.045996	-0.006310	
0.031000	0.224838	0.842813	-0.062590	-0.203000	0.000000	0.001500	0.140066	-0.021557	-0.129351	-8.364164	72.303535	-5.302182	-0.239566	0.000000	-0.602816	0.000001	-0.674014	-0.000001	0.119784	-0.408862	-0.451858	0.200000	0.000000	-0.300000	0.045204	0.019668	0.037114	
0.032000	0.285623	-0.423811	0.240637	-0.203000	0.000000	0.001500	-0.215005	0.008126	-0.063919	-8.396845	72.706520	-5.214431	-0.236924	0.000000	-0.603048	0.000002	-0.635830	-0.000001	0.545288	0.766313	-0.383141	0.200000	0.000000	-0.300000	-0.047999	0.107285	-0.019856	
0.033000	0.067559	0.261128	0.154224	-0.203000	0.000000	0.001500	-0.041311	-0.037874	-0.002574	-8.112401	72.232529	-5.424747	-0.238183	0.000000	-0.603352	0.000001	-0.673987	-0.000001	0.086536	-0.601352	-0.253405	0.200000	0.000000	-0.300000	-0.083317	0.055081	0.082943	
0.034000	0.022088	-0.286633	-0.078858	-0.203000	0.000000	0.001500	-0.167117	-0.067228	-0.001182	-8.024276	73.622559	-5.507040	-0.238097	0.000000	-0.604798	0.000001	-0.742713	-0.000001	-0.011024	0.527459	-0.352750	0.200000	0.000000	-0.300000	0.038384	0.036557	0.054550	
0.035000	0.153063	-0.877553	-0.394873	-0.203000	0.000000	0.001500	-0.099273	-0.015378	-0.035161	-7.931679	73.287445	-5.199012	-0.239040	0.000000	-0.604241	0.000005	-0.675098	-0.000001	-0.198011	0.287111	-0.039510	0.200000	0.000000	-0.300000	-0.033395	0.011035	0.085724	
0.036000	0.304960	-0.831673	-0.051828	-0.203000	0.000000	0.001500	0.043445	-0.040856	-0.081282	-7.937473	74.002136	-5.241752	-0.238424	0.000000	-0.605076	0.000003	-0.726286	-0.000001	0.023828	0.506648	0.042903	0.200000	0.000000	-0.300000	0.002346	0.082524	-0.019349	
